<?xml version="1.0" encoding="UTF-8"?>
<svg version="1.1" xmlns="http://www.w3.org/2000/svg" width="512" height="512">
<path d="M0 0 C0.88429688 0.67289063 1.76859375 1.34578125 2.6796875 2.0390625 C9.83794964 7.59643534 16.44574266 13.75250356 23 20 C23.49709473 20.47373047 23.99418945 20.94746094 24.50634766 21.43554688 C31.2269118 27.88692652 37.25991391 34.66989006 43 42 C43.80179687 42.99644531 44.60359375 43.99289063 45.4296875 45.01953125 C51.99681718 53.2596022 57.6290952 61.94289217 63 71 C63.4125 71.68658691 63.825 72.37317383 64.25 73.08056641 C80.10089107 99.64938421 90.28090296 129.47232395 95 160 C95.11037598 160.67579102 95.22075195 161.35158203 95.33447266 162.04785156 C105.29109534 223.98274859 89.58989005 291.36500758 52.9609375 342.2734375 C50.04845958 346.24139483 47.04448803 350.1327947 44 354 C43.24074219 354.97324219 42.48148437 355.94648438 41.69921875 356.94921875 C33.34633443 367.4094121 24.30611834 377.43912452 14 386 C12.98601926 386.89588383 11.97452911 387.79459043 10.96484375 388.6953125 C-1.93646424 400.12532081 -16.07161964 409.43736698 -31 418 C-32.12019531 418.65484375 -33.24039062 419.3096875 -34.39453125 419.984375 C-90.77420168 451.62279836 -160.24378587 456.80079248 -222 440 C-284.93004088 421.87951948 -339.45401737 378.72595177 -371.37060547 321.54443359 C-378.78953529 308.09475639 -385.07536065 294.55147865 -390 280 C-390.27537598 279.195625 -390.55075195 278.39125 -390.83447266 277.5625 C-411.84793816 215.14275436 -406.15241152 145.46379061 -377 86.6875 C-366.49263527 65.99403431 -353.84745656 47.56542116 -338.1875 30.41015625 C-336.06733383 28.07418746 -334.0030269 25.69673125 -331.9375 23.3125 C-328.92929954 19.93342551 -325.8110932 16.89625799 -322.3515625 13.984375 C-320.57141497 12.48219071 -318.8211947 10.9444478 -317.0859375 9.390625 C-283.68313538 -20.37399906 -241.82175883 -39.71113359 -198 -48 C-197.1853125 -48.16371094 -196.370625 -48.32742187 -195.53125 -48.49609375 C-127.90328803 -61.6098492 -53.89193155 -42.022671 0 0 Z " fill="#DF8E4B" transform="translate(409,58)"/>
<path d="M0 0 C1.62523842 -0.01029488 1.62523842 -0.01029488 3.28330994 -0.02079773 C6.86356728 -0.03909342 10.44338759 -0.03522412 14.02368164 -0.02954102 C16.51323082 -0.03410146 19.00277874 -0.03940662 21.49232483 -0.04542542 C27.37828154 -0.05550638 33.26408265 -0.04938967 39.15003258 -0.03817183 C43.8390621 -0.03099041 48.52781252 -0.04177705 53.21679688 -0.0625 C59.68707045 -0.09075363 66.15705254 -0.09945792 72.62738228 -0.0922718 C75.09254255 -0.0921184 77.55771133 -0.09817814 80.0228405 -0.11056328 C83.46999101 -0.12544179 86.91616139 -0.11481804 90.36328125 -0.09765625 C91.38113708 -0.10732422 92.39899292 -0.11699219 93.44769287 -0.12695312 C100.57881631 -0.05261786 103.9579941 1.2253204 109.12133789 6.21655273 C110.70061021 9.28736003 110.31752943 11.99872398 110.24633789 15.40405273 C110.96587646 15.38310547 111.68541504 15.3621582 112.42675781 15.34057617 C139.34263027 14.65976166 139.34263027 14.65976166 149.24633789 19.40405273 C150.56891602 20.02280273 150.56891602 20.02280273 151.91821289 20.65405273 C163.69648887 26.93579992 170.12288297 37.03368797 174.24633789 49.40405273 C174.33940084 50.87330528 174.37720789 52.34641041 174.38055897 53.81860352 C174.38501681 54.72695922 174.38947466 55.63531492 174.39406759 56.57119656 C174.39379104 58.07014005 174.39379104 58.07014005 174.39350891 59.59936523 C174.3971856 60.65997445 174.40086229 61.72058367 174.40465039 62.81333256 C174.41570777 66.38524412 174.41953459 69.9571266 174.42333984 73.52905273 C174.42960304 76.08304436 174.43624971 78.63703507 174.44325256 81.19102478 C174.46249661 88.86953736 174.47308444 96.54804483 174.48198035 104.22657537 C174.48636456 107.84433929 174.49173114 111.46210174 174.49696922 115.0798645 C174.51398368 127.11025183 174.52847616 139.14063825 174.53571796 151.17103577 C174.53762781 154.29314169 174.53954814 157.41524762 174.54150391 160.53735352 C174.54198765 161.31332205 174.54247139 162.08929059 174.54296979 162.88877332 C174.55126369 175.44889124 174.57658878 188.00891372 174.60908458 200.56898999 C174.64219086 213.47049157 174.66017006 226.37194473 174.66336221 239.273489 C174.66552432 246.51458018 174.67422881 253.75553232 174.69982338 260.99658203 C174.72385953 267.81245187 174.72733365 274.62806813 174.717062 281.44397163 C174.71656671 283.94205112 174.72288499 286.44014295 174.73661804 288.93818474 C174.75435568 292.35671139 174.74722052 295.77434311 174.73408508 299.19287109 C174.75053895 300.66504593 174.75053895 300.66504593 174.76732522 302.16696167 C174.65198981 314.6565374 169.36444036 324.92586459 161.12133789 334.09155273 C149.14152985 345.48827277 133.90487575 345.70629878 118.44848633 345.71044922 C116.64561117 345.71807956 114.84273924 345.72650856 113.03987122 345.735672 C108.16158132 345.75753667 103.28335407 345.76640498 98.40502071 345.77149844 C95.35166376 345.77515133 92.29832298 345.78139618 89.24497223 345.78849983 C78.57696314 345.81296577 67.90900249 345.82604019 57.2409668 345.82958984 C47.3224048 345.83322357 37.4041525 345.86311478 27.48568511 345.90499443 C18.94863007 345.93976786 10.41167734 345.9551395 1.87455201 345.95583588 C-3.21476619 345.95662624 -8.30376846 345.96525392 -13.393013 345.99383354 C-18.18339906 346.0201356 -22.97320991 346.02215208 -27.76363564 346.0061779 C-29.51265792 346.00437307 -31.26171424 346.01096592 -33.01066399 346.02699661 C-47.4620735 346.1512862 -59.95225405 343.90895155 -70.75366211 333.40405273 C-78.36778873 325.26587691 -83.86676516 315.14355761 -83.88508987 303.81869984 C-83.88893102 302.92316232 -83.89277216 302.02762479 -83.89672971 301.10494977 C-83.89586323 300.13025241 -83.89499674 299.15555505 -83.894104 298.15132141 C-83.89707513 297.10871554 -83.90004625 296.06610967 -83.9031074 294.99190968 C-83.91178953 291.49297075 -83.91330225 287.99406605 -83.91479492 284.49511719 C-83.91942344 281.9884687 -83.92444815 279.48182091 -83.92984009 276.97517395 C-83.94296295 270.16096606 -83.94944571 263.34676943 -83.95385075 256.53255105 C-83.956616 252.27518543 -83.96085388 248.01782208 -83.96535492 243.76045799 C-83.97754576 231.96589075 -83.98784527 220.17132531 -83.99123001 208.3767519 C-83.99144958 207.62223465 -83.99166914 206.86771739 -83.99189536 206.09033598 C-83.99211364 205.33404438 -83.99233192 204.57775279 -83.99255681 203.79854327 C-83.99300027 202.26608614 -83.99344683 200.73362901 -83.99389648 199.20117188 C-83.99411791 198.44102511 -83.99433934 197.68087834 -83.99456748 196.89769682 C-83.99851385 184.58601007 -84.01596378 172.27438257 -84.03925601 159.9627187 C-84.06299371 147.31315095 -84.07543297 134.6636129 -84.07659793 122.01402253 C-84.07751336 114.91554326 -84.08323223 107.81714119 -84.10141754 100.71868324 C-84.11846781 94.03988383 -84.1200531 87.36125566 -84.11127853 80.68243217 C-84.11050822 78.23392469 -84.11485011 75.78540934 -84.12473679 73.33692169 C-84.13746271 69.98834147 -84.13157548 66.64027922 -84.12115479 63.29170227 C-84.12921119 62.32815852 -84.13726759 61.36461477 -84.14556813 60.37187272 C-84.05234298 47.51843442 -79.31942133 37.05329776 -70.62866211 27.65405273 C-59.54785513 17.09645418 -46.91688883 15.06957807 -32.25366211 15.27905273 C-30.44768555 15.29258789 -30.44768555 15.29258789 -28.60522461 15.30639648 C-25.65449421 15.32981498 -22.70418521 15.3626128 -19.75366211 15.40405273 C-19.7884668 14.47979492 -19.82327148 13.55553711 -19.85913086 12.60327148 C-19.72081197 8.40759855 -18.39523569 6.61677736 -15.75366211 3.40405273 C-11.00207118 -0.57208032 -5.88641792 -0.02598206 0 0 Z " fill="#DF8D4E" transform="translate(210.753662109375,83.595947265625)"/>
<path d="M0 0 C1.62523842 -0.01029488 1.62523842 -0.01029488 3.28330994 -0.02079773 C6.86356728 -0.03909342 10.44338759 -0.03522412 14.02368164 -0.02954102 C16.51323082 -0.03410146 19.00277874 -0.03940662 21.49232483 -0.04542542 C27.37828154 -0.05550638 33.26408265 -0.04938967 39.15003258 -0.03817183 C43.8390621 -0.03099041 48.52781252 -0.04177705 53.21679688 -0.0625 C59.68707045 -0.09075363 66.15705254 -0.09945792 72.62738228 -0.0922718 C75.09254255 -0.0921184 77.55771133 -0.09817814 80.0228405 -0.11056328 C83.46999101 -0.12544179 86.91616139 -0.11481804 90.36328125 -0.09765625 C91.38113708 -0.10732422 92.39899292 -0.11699219 93.44769287 -0.12695312 C100.57881631 -0.05261786 103.9579941 1.2253204 109.12133789 6.21655273 C110.70061021 9.28736003 110.31752943 11.99872398 110.24633789 15.40405273 C110.96587646 15.38310547 111.68541504 15.3621582 112.42675781 15.34057617 C139.34263027 14.65976166 139.34263027 14.65976166 149.24633789 19.40405273 C150.56891602 20.02280273 150.56891602 20.02280273 151.91821289 20.65405273 C163.69648887 26.93579992 170.12288297 37.03368797 174.24633789 49.40405273 C174.33940084 50.87330528 174.37720789 52.34641041 174.38055897 53.81860352 C174.38501681 54.72695922 174.38947466 55.63531492 174.39406759 56.57119656 C174.39379104 58.07014005 174.39379104 58.07014005 174.39350891 59.59936523 C174.3971856 60.65997445 174.40086229 61.72058367 174.40465039 62.81333256 C174.41570777 66.38524412 174.41953459 69.9571266 174.42333984 73.52905273 C174.42960304 76.08304436 174.43624971 78.63703507 174.44325256 81.19102478 C174.46249661 88.86953736 174.47308444 96.54804483 174.48198035 104.22657537 C174.48636456 107.84433929 174.49173114 111.46210174 174.49696922 115.0798645 C174.51398368 127.11025183 174.52847616 139.14063825 174.53571796 151.17103577 C174.53762781 154.29314169 174.53954814 157.41524762 174.54150391 160.53735352 C174.54198765 161.31332205 174.54247139 162.08929059 174.54296979 162.88877332 C174.55126369 175.44889124 174.57658878 188.00891372 174.60908458 200.56898999 C174.64219086 213.47049157 174.66017006 226.37194473 174.66336221 239.273489 C174.66552432 246.51458018 174.67422881 253.75553232 174.69982338 260.99658203 C174.72385953 267.81245187 174.72733365 274.62806813 174.717062 281.44397163 C174.71656671 283.94205112 174.72288499 286.44014295 174.73661804 288.93818474 C174.75435568 292.35671139 174.74722052 295.77434311 174.73408508 299.19287109 C174.75053895 300.66504593 174.75053895 300.66504593 174.76732522 302.16696167 C174.65198981 314.6565374 169.36444036 324.92586459 161.12133789 334.09155273 C149.14152985 345.48827277 133.90487575 345.70629878 118.44848633 345.71044922 C116.64561117 345.71807956 114.84273924 345.72650856 113.03987122 345.735672 C108.16158132 345.75753667 103.28335407 345.76640498 98.40502071 345.77149844 C95.35166376 345.77515133 92.29832298 345.78139618 89.24497223 345.78849983 C78.57696314 345.81296577 67.90900249 345.82604019 57.2409668 345.82958984 C47.3224048 345.83322357 37.4041525 345.86311478 27.48568511 345.90499443 C18.94863007 345.93976786 10.41167734 345.9551395 1.87455201 345.95583588 C-3.21476619 345.95662624 -8.30376846 345.96525392 -13.393013 345.99383354 C-18.18339906 346.0201356 -22.97320991 346.02215208 -27.76363564 346.0061779 C-29.51265792 346.00437307 -31.26171424 346.01096592 -33.01066399 346.02699661 C-47.4620735 346.1512862 -59.95225405 343.90895155 -70.75366211 333.40405273 C-78.36778873 325.26587691 -83.86676516 315.14355761 -83.88508987 303.81869984 C-83.88893102 302.92316232 -83.89277216 302.02762479 -83.89672971 301.10494977 C-83.89586323 300.13025241 -83.89499674 299.15555505 -83.894104 298.15132141 C-83.89707513 297.10871554 -83.90004625 296.06610967 -83.9031074 294.99190968 C-83.91178953 291.49297075 -83.91330225 287.99406605 -83.91479492 284.49511719 C-83.91942344 281.9884687 -83.92444815 279.48182091 -83.92984009 276.97517395 C-83.94296295 270.16096606 -83.94944571 263.34676943 -83.95385075 256.53255105 C-83.956616 252.27518543 -83.96085388 248.01782208 -83.96535492 243.76045799 C-83.97754576 231.96589075 -83.98784527 220.17132531 -83.99123001 208.3767519 C-83.99144958 207.62223465 -83.99166914 206.86771739 -83.99189536 206.09033598 C-83.99211364 205.33404438 -83.99233192 204.57775279 -83.99255681 203.79854327 C-83.99300027 202.26608614 -83.99344683 200.73362901 -83.99389648 199.20117188 C-83.99411791 198.44102511 -83.99433934 197.68087834 -83.99456748 196.89769682 C-83.99851385 184.58601007 -84.01596378 172.27438257 -84.03925601 159.9627187 C-84.06299371 147.31315095 -84.07543297 134.6636129 -84.07659793 122.01402253 C-84.07751336 114.91554326 -84.08323223 107.81714119 -84.10141754 100.71868324 C-84.11846781 94.03988383 -84.1200531 87.36125566 -84.11127853 80.68243217 C-84.11050822 78.23392469 -84.11485011 75.78540934 -84.12473679 73.33692169 C-84.13746271 69.98834147 -84.13157548 66.64027922 -84.12115479 63.29170227 C-84.12921119 62.32815852 -84.13726759 61.36461477 -84.14556813 60.37187272 C-84.05234298 47.51843442 -79.31942133 37.05329776 -70.62866211 27.65405273 C-59.54785513 17.09645418 -46.91688883 15.06957807 -32.25366211 15.27905273 C-30.44768555 15.29258789 -30.44768555 15.29258789 -28.60522461 15.30639648 C-25.65449421 15.32981498 -22.70418521 15.3626128 -19.75366211 15.40405273 C-19.7884668 14.47979492 -19.82327148 13.55553711 -19.85913086 12.60327148 C-19.72081197 8.40759855 -18.39523569 6.61677736 -15.75366211 3.40405273 C-11.00207118 -0.57208032 -5.88641792 -0.02598206 0 0 Z M-47.75366211 56.40405273 C-48.36158084 59.68584934 -48.29721135 62.93689743 -48.26832581 66.26646423 C-48.27527133 67.27907509 -48.28221686 68.29168594 -48.28937286 69.33498198 C-48.30771337 72.73835459 -48.29735863 76.14103568 -48.28710938 79.54443359 C-48.29416426 81.98023503 -48.30290745 84.41603207 -48.31321716 86.8518219 C-48.33342526 92.78732481 -48.33472641 98.7226511 -48.32659162 104.65816634 C-48.32029444 109.482132 -48.32142604 114.30604173 -48.32786369 119.13000679 C-48.32876535 119.8163108 -48.329667 120.50261482 -48.33059598 121.20971592 C-48.33244717 122.60389714 -48.33430973 123.99807835 -48.33618354 125.39225955 C-48.3527674 138.46982678 -48.34403801 151.54728618 -48.32719796 164.62484694 C-48.31250191 176.59084977 -48.32712689 188.55660149 -48.35596813 200.52257197 C-48.38535686 212.80711499 -48.39633587 225.09154209 -48.38678592 237.37611872 C-48.38576337 238.76550676 -48.38476876 240.15489483 -48.38380241 241.54428291 C-48.38332602 242.22789875 -48.38284963 242.91151458 -48.38235881 243.61584605 C-48.38019389 248.43363357 -48.39000286 253.25131144 -48.40457344 258.06907463 C-48.42391297 264.55421591 -48.41702563 271.03900393 -48.39237404 277.52412987 C-48.38735212 279.90700292 -48.39089144 282.28991133 -48.40352249 284.6727562 C-48.41937933 287.92059953 -48.40457018 291.16688858 -48.3818512 294.41465759 C-48.39368692 295.36232008 -48.40552265 296.30998258 -48.41771704 297.28636211 C-48.35571734 301.63546406 -48.15392303 303.81214141 -45.66747952 307.48912811 C-42.0161088 309.88876361 -39.86089015 310.03025683 -35.50439453 310.03224182 C-34.78494502 310.03933621 -34.06549551 310.0464306 -33.3242445 310.05373996 C-30.91865964 310.07131219 -28.5146923 310.05322102 -26.10913086 310.03515625 C-24.38253036 310.04029541 -22.65593511 310.04757666 -20.92935181 310.05683899 C-16.2433138 310.07536175 -11.55784437 310.06240898 -6.87182999 310.04274869 C-1.96809472 310.02636808 2.93560437 310.03517427 7.83935547 310.04026794 C16.07439256 310.04478956 24.30920257 310.02891485 32.54418945 310.00097656 C42.06519317 309.96892436 51.5857873 309.96894018 61.10682011 309.98619133 C70.26546935 310.00205469 79.42396841 309.99532409 88.58261108 309.97825432 C92.48045855 309.97138142 96.37818572 309.97241873 100.27603149 309.97979927 C104.86607366 309.98745999 109.45564967 309.97534303 114.04561234 309.94795036 C115.73023724 309.94106319 117.41490565 309.94097213 119.09952927 309.94816589 C121.39922996 309.95685465 123.69749008 309.94091646 125.99707031 309.91871643 C127.28385178 309.91590951 128.57063324 309.91310259 129.89640808 309.91021061 C133.81422446 309.31824787 135.46158969 308.1669033 138.24633789 305.40405273 C139.38670011 303.12332829 139.37541243 301.86403737 139.38335228 299.33005047 C139.38842682 298.47223655 139.39350137 297.61442264 139.39872968 296.73061436 C139.39947632 295.30870887 139.39947632 295.30870887 139.40023804 293.858078 C139.40462029 292.8553431 139.40900254 291.8526082 139.41351759 290.81948739 C139.42694116 287.43776189 139.4330924 284.05606247 139.43920898 280.67431641 C139.44710706 278.25851828 139.45537582 275.84272134 139.46398926 273.42692566 C139.48797389 266.16182902 139.50314105 258.8967306 139.51604933 251.63160822 C139.5197605 249.58024955 139.52373379 247.52889157 139.52780199 245.47753358 C139.55303642 232.74356239 139.57509325 220.00959015 139.58753014 207.27559948 C139.59045991 204.32549727 139.59342157 201.37539509 139.59643555 198.42529297 C139.5971816 197.69204429 139.59792765 196.95879561 139.59869631 196.20332728 C139.61135387 184.32128348 139.64458187 172.4393892 139.68623738 160.55741533 C139.72863719 148.36336304 139.75222285 136.16938733 139.7574507 123.97526151 C139.76086693 117.12666212 139.77264676 110.27829643 139.80555344 103.42976952 C139.83644977 96.9890229 139.84198176 90.54857239 139.83016968 84.10775948 C139.82994811 81.74099586 139.8383217 79.37421386 139.85582352 77.00751495 C139.87838553 73.78150595 139.87027951 70.55699314 139.8543396 67.33097839 C139.86822169 66.38973356 139.88210377 65.44848873 139.89640653 64.47872132 C139.84106892 59.94764314 139.71672905 58.01768554 136.88150978 54.31909657 C133.78514742 52.06889435 132.29650509 51.81447607 128.50805664 51.91577148 C127.44135742 51.93188477 126.3746582 51.94799805 125.27563477 51.96459961 C124.1728418 52.00649414 123.07004883 52.04838867 121.93383789 52.09155273 C120.81170898 52.11411133 119.68958008 52.13666992 118.53344727 52.15991211 C115.76971253 52.21871498 113.00871235 52.30084872 110.24633789 52.40405273 C110.11678711 53.30897461 110.11678711 53.30897461 109.98461914 54.23217773 C109.77385742 55.43100586 109.77385742 55.43100586 109.55883789 56.65405273 C109.4312207 57.44295898 109.30360352 58.23186523 109.17211914 59.04467773 C107.81771835 62.49639957 106.45092449 63.47826858 103.24633789 65.40405273 C99.53742511 66.00810797 95.86069907 65.96061848 92.10961914 65.9375 C90.42344986 65.95042336 90.42344986 65.95042336 88.70321655 65.96360779 C84.98818933 65.98630692 81.27391395 65.97952149 77.55883789 65.97045898 C74.97721125 65.97569254 72.39558654 65.98196804 69.81396484 65.98924255 C64.40362541 65.99965395 58.99357329 65.99540326 53.58325195 65.98046875 C47.33401138 65.96354134 41.08546901 65.97939237 34.83630466 66.01169163 C28.81716097 66.0416203 22.79837249 66.04357004 16.77914429 66.03419304 C14.22104993 66.03337208 11.66294117 66.04026286 9.10488892 66.05496407 C5.53042492 66.07235768 1.95745993 66.05790836 -1.61694336 66.03515625 C-2.67579742 66.04684845 -3.73465149 66.05854065 -4.82559204 66.07058716 C-12.0037057 65.9774924 -12.0037057 65.9774924 -15.8918457 63.00450134 C-18.46823628 59.40598794 -18.94958518 56.71682899 -19.75366211 52.40405273 C-23.67007921 52.2878651 -27.58605311 52.2168062 -31.50366211 52.15405273 C-32.61483398 52.12053711 -33.72600586 52.08702148 -34.87084961 52.05249023 C-35.94077148 52.03959961 -37.01069336 52.02670898 -38.11303711 52.01342773 C-39.09755859 51.99248047 -40.08208008 51.9715332 -41.09643555 51.94995117 C-44.71084223 52.56762817 -45.60132357 53.41904431 -47.75366211 56.40405273 Z " fill="#FCFAF9" transform="translate(210.753662109375,83.595947265625)"/>
<path d="M0 0 C1.20205078 0.00644531 2.40410156 0.01289062 3.64257812 0.01953125 C5.51139648 0.04466797 5.51139648 0.04466797 7.41796875 0.0703125 C9.31579102 0.08384766 9.31579102 0.08384766 11.25195312 0.09765625 C14.3698728 0.12118772 17.48769497 0.15705761 20.60546875 0.1953125 C20.60546875 4.4853125 20.60546875 8.7753125 20.60546875 13.1953125 C18.80980469 13.22109375 17.01414063 13.246875 15.1640625 13.2734375 C12.79034071 13.3297313 10.41664373 13.38707834 8.04296875 13.4453125 C6.86154297 13.45949219 5.68011719 13.47367188 4.46289062 13.48828125 C-3.77078139 13.71891632 -8.86903733 14.47925135 -14.70703125 20.6328125 C-18.57584426 26.50767671 -18.68414234 31.42126273 -18.66195679 38.27841187 C-18.6664879 39.30271667 -18.67101901 40.32702148 -18.67568743 41.38236582 C-18.68836128 44.8192466 -18.68670912 48.25596952 -18.68505859 51.69287109 C-18.69104194 54.15512801 -18.69784703 56.61738306 -18.70541382 59.07963562 C-18.72126236 65.07646063 -18.72752302 71.07322342 -18.72863857 77.07006358 C-18.72958934 81.94498566 -18.73370105 86.81989479 -18.74003983 91.69481277 C-18.75764977 105.5195386 -18.76687901 119.34423339 -18.76537888 133.16897051 C-18.76529897 133.91404032 -18.76521905 134.65911013 -18.76513672 135.42675781 C-18.76505496 136.17273844 -18.7649732 136.91871907 -18.76488896 137.68730517 C-18.76407599 149.7779496 -18.78321694 161.86846948 -18.81141345 173.95907788 C-18.84014452 186.37698513 -18.85395365 198.79483163 -18.8522259 211.21277297 C-18.8515621 218.18318609 -18.85704987 225.15346861 -18.878582 232.12385178 C-18.89870103 238.67872183 -18.89811784 245.23336312 -18.88354874 251.78826332 C-18.88145431 254.19449198 -18.88619907 256.60073773 -18.89826965 259.00693703 C-18.9136776 262.29103271 -18.90444251 265.57417116 -18.88900757 268.85824585 C-18.89929469 269.81107338 -18.90958182 270.76390092 -18.92018068 271.74560201 C-18.85736275 277.79126741 -17.72643704 281.15465978 -14.39453125 286.1953125 C-14.39453125 286.8553125 -14.39453125 287.5153125 -14.39453125 288.1953125 C-7.87259872 291.72802595 -2.15021708 293.56906576 5.27124023 293.58299255 C6.36333502 293.59107086 6.36333502 293.59107086 7.47749233 293.59931237 C9.89402579 293.61351163 12.31000523 293.6065085 14.7265625 293.59936523 C16.4684391 293.60507296 18.21031195 293.61203878 19.95217896 293.62016296 C24.66702226 293.63806337 29.38167913 293.63693206 34.09654617 293.63122058 C38.03793769 293.62812473 41.9792936 293.63422547 45.92068005 293.64025933 C55.22026229 293.65429222 64.51975264 293.65275307 73.81933594 293.64135742 C83.40337338 293.62987252 92.98713111 293.64396096 102.57113171 293.6707539 C110.8108603 293.69292369 119.05050116 293.69954553 127.29025745 293.69367748 C132.20666519 293.69031037 137.12289356 293.69270695 142.03927612 293.70992851 C146.66215998 293.72541635 151.2846298 293.72142174 155.90749741 293.70262337 C157.60055335 293.69894283 159.29364011 293.70203034 160.98666763 293.71250916 C174.58093089 293.91871501 174.58093089 293.91871501 185.91796875 286.9453125 C190.20445704 279.95992418 191.04577112 273.94233992 190.99987793 265.92349243 C191.00596903 264.91507526 191.01206014 263.90665808 191.01833582 262.86768281 C191.03493084 259.50233028 191.0301949 256.13735756 191.02539062 252.77197266 C191.03273294 250.35354724 191.04131965 247.93512533 191.05105591 245.51670837 C191.07095811 239.63759294 191.07665351 233.75856947 191.07486802 227.87943007 C191.07355805 223.09851593 191.07737649 218.31763246 191.08479309 213.53672409 C191.08689239 212.15720539 191.08898999 210.77768668 191.09108591 209.39816797 C191.09212944 208.71144649 191.09317297 208.02472501 191.09424812 207.31719379 C191.11313119 194.34296508 191.11210617 181.36879297 191.10527879 168.39455621 C191.09970415 156.53888879 191.1205287 144.68343752 191.15363926 132.82782061 C191.18741431 120.63918671 191.20253989 108.45065624 191.19792223 96.26197469 C191.19568146 89.42506447 191.20086302 82.58835403 191.22581482 75.75148392 C191.24908368 69.32128123 191.2461989 62.89141413 191.2258873 56.46119881 C191.22247831 54.10460498 191.22756143 51.74798084 191.24187088 49.39142799 C191.26009289 46.1674633 191.24729084 42.94501948 191.22692871 39.72109985 C191.23944656 38.794621 191.25196441 37.86814214 191.26486158 36.91358817 C191.16625745 29.60201072 189.15297289 22.73262905 183.84935141 17.44423831 C178.01449049 12.85256226 170.68588227 13.41645755 163.60546875 13.3828125 C162.35378906 13.35767578 161.10210937 13.33253906 159.8125 13.30664062 C156.74382399 13.24807811 153.67461397 13.21875736 150.60546875 13.1953125 C150.60546875 8.9053125 150.60546875 4.6153125 150.60546875 0.1953125 C154.89782692 0.0866452 159.18739042 0.00766011 163.48046875 -0.0546875 C165.28644531 -0.10496094 165.28644531 -0.10496094 167.12890625 -0.15625 C179.0043116 -0.28533049 186.77281496 2.47468664 195.40234375 10.68359375 C200.60484293 16.61481179 203.72093874 23.66435933 203.73968983 31.57394409 C203.74414767 32.44884019 203.74860551 33.32373629 203.75319844 34.22514439 C203.75301408 35.18193561 203.75282972 36.13872683 203.75263977 37.12451172 C203.75631646 38.14443427 203.75999315 39.16435682 203.76378125 40.21518612 C203.77482161 43.64346247 203.77866257 47.07170852 203.7824707 50.5 C203.78873517 52.95399573 203.79538196 55.40799051 203.80238342 57.86198425 C203.82161346 65.23455822 203.83221297 72.60712414 203.84111121 79.97971582 C203.84549764 83.45489243 203.85086361 86.93006751 203.85610008 90.40524292 C203.87311238 101.96385888 203.88760465 113.52247391 203.89484882 125.08110046 C203.89675861 128.07962037 203.89867895 131.07814028 203.90063477 134.07666016 C203.90111851 134.82189473 203.90160225 135.56712931 203.90210065 136.33494675 C203.9103938 148.39640489 203.93571857 160.45776362 203.96821544 172.51917839 C204.00133541 184.91334096 204.01930212 197.30745311 204.02249306 209.70166016 C204.02465383 216.65604822 204.0333385 223.61029142 204.05895424 230.56463623 C204.083013 237.11128854 204.08645599 243.65772778 204.07619286 250.20443153 C204.07569809 252.60211363 204.08200101 254.99980866 204.0957489 257.3974514 C204.24955965 285.82183349 204.24955965 285.82183349 194.52734375 297.2890625 C187.57699514 304.18290421 179.51267019 306.50049301 169.82112122 306.47619629 C169.06814985 306.48213853 168.31517847 306.48808078 167.53938979 306.49420309 C165.03248019 306.51145712 162.52576295 306.51458324 160.01879883 306.51757812 C158.21459552 306.52684301 156.4103961 306.53689347 154.60620117 306.54766846 C149.71547148 306.57383845 144.82479661 306.58679103 139.93400788 306.59568977 C136.87430419 306.60156384 133.81461527 306.6097758 130.75491905 306.61869812 C121.16970035 306.64602741 111.58451567 306.66537082 101.99926072 306.6731019 C90.95684645 306.68205877 79.91492787 306.71714243 68.87266427 306.77510309 C60.32207767 306.81841789 51.77163013 306.83851476 43.22093505 306.84118414 C38.12093524 306.84327443 33.02140204 306.85496441 27.92151833 306.89082336 C23.12042367 306.92392656 18.32014284 306.92802876 13.5189743 306.91054535 C11.76468656 306.90901209 10.01035377 306.91759105 8.2561779 306.93746185 C-3.35931686 307.06124037 -12.71291329 306.09203449 -21.85455608 298.0242691 C-28.94142003 291.01910853 -31.81602173 281.98494476 -31.92950487 272.1432327 C-31.92058198 271.18922122 -31.9116591 270.23520974 -31.90246582 269.25228882 C-31.90870578 268.20793439 -31.91494575 267.16357995 -31.9213748 266.08757842 C-31.93721869 262.61853408 -31.924734 259.1502008 -31.91210938 255.68115234 C-31.91753422 253.18184502 -31.92465892 250.6825409 -31.93334961 248.1832428 C-31.94965483 242.11830965 -31.9473252 236.05365143 -31.93569905 229.98872922 C-31.92664026 225.05770224 -31.92545124 220.12673071 -31.92979431 215.19569778 C-31.93040724 214.49206956 -31.93102018 213.78844134 -31.93165168 213.06349105 C-31.93293066 211.63380449 -31.93422752 210.20411795 -31.93554205 208.77443142 C-31.94692788 195.39197289 -31.93386472 182.00962425 -31.91234058 168.62718375 C-31.89446357 157.15732537 -31.89758249 145.68762891 -31.91601562 134.21777344 C-31.93744426 120.87786815 -31.94583763 107.53805893 -31.93356657 94.19813883 C-31.93229245 92.77452447 -31.93103497 91.35091008 -31.92979431 89.92729568 C-31.92886866 88.87679042 -31.92886866 88.87679042 -31.92792431 87.80506282 C-31.92447795 82.88189347 -31.93028411 77.95878533 -31.93971252 73.03562546 C-31.9521324 66.40513413 -31.94323151 59.77490072 -31.9201355 53.14442253 C-31.91485278 50.7132372 -31.91635465 48.28202609 -31.92518616 45.85085106 C-31.93614164 42.52834485 -31.92237673 39.20681327 -31.90246582 35.8843689 C-31.91138871 34.92589597 -31.92031159 33.96742305 -31.92950487 32.97990549 C-31.81928212 23.47605927 -28.12211523 14.98003095 -21.39453125 8.1953125 C-14.70493769 3.35260512 -8.36338034 -0.07927375 0 0 Z " fill="#DF8A52" transform="translate(170.39453125,110.8046875)"/>
<path d="M0 0 C1.0759845 -0.00218285 1.0759845 -0.00218285 2.17370605 -0.00440979 C3.68664624 -0.00275366 5.19960376 0.00877585 6.71240234 0.02954102 C9.02384234 0.05850094 11.33298775 0.05014532 13.64453125 0.03710938 C15.11719861 0.04334728 16.58985875 0.05173865 18.0625 0.0625 C19.09546204 0.05809654 19.09546204 0.05809654 20.14929199 0.05360413 C23.14158595 0.11222408 25.29881072 0.37592422 27.97363281 1.75878906 C29.90208299 3.90970622 30.00288864 4.87083179 29.921875 7.7265625 C29.90898437 8.52900391 29.89609375 9.33144531 29.8828125 10.15820312 C29.84929687 10.99158203 29.81578125 11.82496094 29.78125 12.68359375 C29.76320313 13.52857422 29.74515625 14.37355469 29.7265625 15.24414062 C29.67945586 17.32860948 29.60771233 19.41249519 29.53125 21.49609375 C30.71203125 21.4496875 31.8928125 21.40328125 33.109375 21.35546875 C34.66664134 21.31794426 36.22393508 21.28154482 37.78125 21.24609375 C38.94720703 21.19582031 38.94720703 21.19582031 40.13671875 21.14453125 C41.26787109 21.12519531 41.26787109 21.12519531 42.421875 21.10546875 C43.11313477 21.08452148 43.80439453 21.06357422 44.51660156 21.04199219 C47.59627241 21.7361497 48.68523854 22.95795484 50.53125 25.49609375 C50.92967915 28.12873315 51.09340695 30.33621543 51.0625 32.96484375 C51.06824036 34.04082825 51.06824036 34.04082825 51.07409668 35.1385498 C51.07681227 36.65146289 51.06947555 38.1644232 51.05273438 39.67724609 C51.03131551 41.98902351 51.05254351 44.29769388 51.078125 46.609375 C51.07548166 48.08203809 51.07035653 49.55469925 51.0625 51.02734375 C51.07059692 51.71598511 51.07869385 52.40462646 51.08703613 53.11413574 C51.02270956 56.41739757 50.71750153 58.2400107 48.75488281 60.93847656 C46.33928654 62.63056091 45.32216073 62.9746062 42.421875 62.88671875 C41.66777344 62.87382812 40.91367187 62.8609375 40.13671875 62.84765625 C39.35941406 62.81414062 38.58210938 62.780625 37.78125 62.74609375 C36.98847656 62.72804687 36.19570313 62.71 35.37890625 62.69140625 C33.42916652 62.64442457 31.48005122 62.57268419 29.53125 62.49609375 C29.57765625 63.676875 29.6240625 64.85765625 29.671875 66.07421875 C29.70939949 67.63148509 29.74579893 69.18877883 29.78125 70.74609375 C29.81476563 71.52339844 29.84828125 72.30070312 29.8828125 73.1015625 C29.89570313 73.85566406 29.90859375 74.60976562 29.921875 75.38671875 C29.94282227 76.07797852 29.96376953 76.76923828 29.98535156 77.48144531 C29.29119405 80.56111616 28.06938891 81.65008229 25.53125 83.49609375 C22.8986106 83.8945229 20.69112832 84.0582507 18.0625 84.02734375 C17.345177 84.03117065 16.627854 84.03499756 15.88879395 84.03894043 C14.37588086 84.04165602 12.86292055 84.0343193 11.35009766 84.01757812 C9.03832024 83.99615926 6.72964987 84.01738726 4.41796875 84.04296875 C2.94530566 84.04032541 1.4726445 84.03520028 0 84.02734375 C-1.03296204 84.03948914 -1.03296204 84.03948914 -2.08679199 84.05187988 C-5.39005382 83.98755331 -7.21266695 83.68234528 -9.91113281 81.71972656 C-11.60321716 79.30413029 -11.94726245 78.28700448 -11.859375 75.38671875 C-11.84003906 74.25556641 -11.84003906 74.25556641 -11.8203125 73.1015625 C-11.78679687 72.32425781 -11.75328125 71.54695313 -11.71875 70.74609375 C-11.70070312 69.95332031 -11.68265625 69.16054687 -11.6640625 68.34375 C-11.61708082 66.39401027 -11.54534044 64.44489497 -11.46875 62.49609375 C-12.64953125 62.5425 -13.8303125 62.58890625 -15.046875 62.63671875 C-16.60414134 62.67424324 -18.16143508 62.71064268 -19.71875 62.74609375 C-20.88470703 62.79636719 -20.88470703 62.79636719 -22.07421875 62.84765625 C-22.82832031 62.86054688 -23.58242187 62.8734375 -24.359375 62.88671875 C-25.05063477 62.90766602 -25.74189453 62.92861328 -26.45410156 62.95019531 C-29.53433304 62.25591144 -30.62390275 61.03577338 -32.46875 58.49609375 C-32.85513905 55.86225537 -33.00771243 53.6551882 -32.96484375 51.02734375 C-32.96629898 50.31002075 -32.96775421 49.59269775 -32.96925354 48.8536377 C-32.96759741 47.34069751 -32.9560679 45.82773999 -32.93530273 44.31494141 C-32.90634281 42.00350141 -32.91469843 39.694356 -32.92773438 37.3828125 C-32.92149647 35.91014514 -32.9131051 34.437485 -32.90234375 32.96484375 C-32.90527939 32.27620239 -32.90821503 31.58756104 -32.91123962 30.87805176 C-32.85261967 27.8857578 -32.58891953 25.72853303 -31.20605469 23.05371094 C-29.05513753 21.12526076 -28.09401196 21.02445511 -25.23828125 21.10546875 C-24.03461914 21.12480469 -24.03461914 21.12480469 -22.80664062 21.14453125 C-21.55657227 21.19480469 -21.55657227 21.19480469 -20.28125 21.24609375 C-19.43626953 21.26414063 -18.59128906 21.2821875 -17.72070312 21.30078125 C-15.63623427 21.34788789 -13.55234856 21.41963142 -11.46875 21.49609375 C-11.51515625 20.3153125 -11.5615625 19.13453125 -11.609375 17.91796875 C-11.64689949 16.36070241 -11.68329893 14.80340867 -11.71875 13.24609375 C-11.75226563 12.46878906 -11.78578125 11.69148437 -11.8203125 10.890625 C-11.83320313 10.13652344 -11.84609375 9.38242188 -11.859375 8.60546875 C-11.88032227 7.91420898 -11.90126953 7.22294922 -11.92285156 6.51074219 C-10.51022952 0.24356095 -5.50654067 -0.08982957 0 0 Z " fill="#FCFAF7" transform="translate(244.46875,166.50390625)"/>
<path d="M0 0 C34.98 0 69.96 0 106 0 C106 14.19 106 28.38 106 43 C71.02 43 36.04 43 0 43 C0 28.81 0 14.62 0 0 Z " fill="#E4A83A" transform="translate(203,96)"/>
<path d="M0 0 C1.20998154 -0.00990463 2.41996307 -0.01980927 3.66661072 -0.03001404 C5.00947672 -0.02577579 6.35234174 -0.02121791 7.69520569 -0.01637268 C9.1078648 -0.02207423 10.5205193 -0.02903765 11.9331665 -0.03717041 C15.77204419 -0.05514144 19.61069379 -0.05392605 23.44960093 -0.04822803 C26.65297936 -0.04514169 29.85631362 -0.05122245 33.05968577 -0.05726677 C40.61628953 -0.07132347 48.17278027 -0.06974137 55.72938538 -0.05836487 C63.52808127 -0.04688342 71.32643329 -0.06095696 79.12508386 -0.08776134 C85.81816976 -0.10990549 92.51114762 -0.11655862 99.20426756 -0.11068493 C103.20290169 -0.10731092 107.20131538 -0.10975958 111.19991875 -0.12693596 C114.96012182 -0.14238265 118.71981488 -0.13847549 122.47999763 -0.11963081 C123.86028062 -0.11593847 125.2406012 -0.11907226 126.62084961 -0.1295166 C128.50443745 -0.14268183 130.38815659 -0.12879855 132.27172852 -0.11352539 C133.85321135 -0.11321146 133.85321135 -0.11321146 135.46664333 -0.1128912 C138.89605462 0.51529949 140.08287048 1.66830675 142.19935608 4.38768005 C142.63685608 6.95018005 142.63685608 6.95018005 142.19935608 9.38768005 C141.03734589 11.01663494 141.03734589 11.01663494 139.19935608 12.38768005 C136.57407379 12.76241016 136.57407379 12.76241016 133.35401917 12.76190186 C132.13417831 12.76891617 130.91433746 12.77593048 129.65753174 12.78315735 C128.303633 12.77572945 126.94973591 12.76799829 125.59584045 12.75999451 C124.17170953 12.76242216 122.74758031 12.76614122 121.32345581 12.77105713 C117.45362996 12.78047348 113.58405671 12.77103458 109.71425056 12.757725 C105.66774068 12.74642069 101.62124342 12.75051722 97.57472229 12.75247192 C90.77882249 12.75335522 83.98302237 12.74226703 77.18714905 12.72386169 C69.32603778 12.7026935 61.46507258 12.69918397 53.60393858 12.70542365 C46.04712714 12.71111509 38.49036724 12.70547426 30.93356323 12.69425011 C27.7151189 12.68960119 24.49670606 12.68873153 21.27825928 12.69083595 C17.48944795 12.69271733 13.70078564 12.68462665 9.91200829 12.66877556 C8.52002262 12.66452708 7.12802186 12.66368594 5.73603249 12.66646576 C3.83891246 12.66968 1.94178374 12.65939473 0.04469299 12.64837646 C-1.01792503 12.6463236 -2.08054306 12.64427073 -3.17536163 12.64215565 C-5.80064392 12.38768005 -5.80064392 12.38768005 -8.80064392 10.38768005 C-9.45917642 4.35113214 -9.45917642 4.35113214 -7.63974667 1.68925381 C-5.04282198 -0.14864732 -3.16749962 0.00730275 0 0 Z " fill="#FCF9F7" transform="translate(189.80064392089844,268.61231994628906)"/>
<path d="M0 0 C1.20998154 -0.00990463 2.41996307 -0.01980927 3.66661072 -0.03001404 C5.00947672 -0.02577579 6.35234174 -0.02121791 7.69520569 -0.01637268 C9.1078648 -0.02207423 10.5205193 -0.02903765 11.9331665 -0.03717041 C15.77204419 -0.05514144 19.61069379 -0.05392605 23.44960093 -0.04822803 C26.65297936 -0.04514169 29.85631362 -0.05122245 33.05968577 -0.05726677 C40.61628953 -0.07132347 48.17278027 -0.06974137 55.72938538 -0.05836487 C63.52808127 -0.04688342 71.32643329 -0.06095696 79.12508386 -0.08776134 C85.81816976 -0.10990549 92.51114762 -0.11655862 99.20426756 -0.11068493 C103.20290169 -0.10731092 107.20131538 -0.10975958 111.19991875 -0.12693596 C114.96012182 -0.14238265 118.71981488 -0.13847549 122.47999763 -0.11963081 C123.86028062 -0.11593847 125.2406012 -0.11907226 126.62084961 -0.1295166 C128.50443745 -0.14268183 130.38815659 -0.12879855 132.27172852 -0.11352539 C133.85321135 -0.11321146 133.85321135 -0.11321146 135.46664333 -0.1128912 C138.89605462 0.51529949 140.08287048 1.66830675 142.19935608 4.38768005 C142.63685608 6.95018005 142.63685608 6.95018005 142.19935608 9.38768005 C141.03734589 11.01621437 141.03734589 11.01621437 139.19935608 12.38768005 C136.57407379 12.76520348 136.57407379 12.76520348 133.35401917 12.76863098 C131.52425789 12.78132019 131.52425789 12.78132019 129.65753174 12.79426575 C128.30363331 12.78843268 126.9497362 12.78228817 125.59584045 12.77586365 C124.17170814 12.7799282 122.74757898 12.78526943 121.32345581 12.79179382 C117.4536423 12.80548724 113.58406834 12.80016053 109.71425056 12.79065657 C105.66773449 12.78307041 101.62123916 12.79010267 97.57472229 12.79481506 C90.77882701 12.80027567 83.98302949 12.79307304 77.18714905 12.77879333 C69.3259992 12.76246619 61.46508277 12.76775449 53.60393858 12.78427255 C46.85906839 12.79787876 40.11426853 12.79981133 33.36938906 12.79195654 C29.33897354 12.78727525 25.30866778 12.78666764 21.27825928 12.79656601 C17.48939759 12.80522088 13.70083734 12.79924117 9.91200829 12.78188324 C8.52002145 12.77791043 7.12800932 12.77906601 5.73603249 12.78567123 C3.83892843 12.79384461 1.94176904 12.78178701 0.04469299 12.76863098 C-1.54923405 12.76693437 -1.54923405 12.76693437 -3.17536163 12.76520348 C-5.80064392 12.38768005 -5.80064392 12.38768005 -7.64253998 11.05137062 C-9.44872442 8.45667087 -9.1840151 6.45464948 -8.80064392 3.38768005 C-6.37787892 -0.08352493 -4.05906413 0.00935827 0 0 Z " fill="#FCF9F9" transform="translate(189.80064392089844,363.61231994628906)"/>
<path d="M0 0 C1.20998154 -0.00845947 2.41996307 -0.01691895 3.66661072 -0.02563477 C5.00947705 -0.01980168 6.35234206 -0.01365716 7.69520569 -0.00723267 C9.10786343 -0.01129729 10.52051798 -0.01663855 11.9331665 -0.02316284 C15.77205704 -0.0368567 19.6107061 -0.03152904 23.44960093 -0.02202559 C27.46495265 -0.01443817 31.48028348 -0.02147218 35.49563599 -0.02618408 C42.24025693 -0.03164495 48.98477938 -0.02444203 55.72938538 -0.01016235 C63.5280319 0.00615823 71.32644306 0.00088137 79.12508386 -0.01564157 C85.81816559 -0.02925493 92.51117646 -0.03117665 99.20426756 -0.02332556 C103.20285719 -0.01864735 107.20133621 -0.01802808 111.19991875 -0.02793503 C114.96005709 -0.03660004 118.71989207 -0.03059154 122.47999763 -0.01325226 C123.8602765 -0.00928461 125.24058089 -0.01042626 126.62084961 -0.01704025 C128.50446665 -0.0252341 130.38813947 -0.01313832 132.27172852 0 C133.32605041 0.00113108 134.3803723 0.00226215 135.46664333 0.00342751 C138.5454932 0.42876966 139.92226941 1.31813052 142.19935608 3.38095093 C141.88685608 6.75595093 141.88685608 6.75595093 141.19935608 10.38095093 C137.7466066 12.68278391 136.46001486 12.63373339 132.39198303 12.64164734 C131.18055634 12.64873215 129.96912964 12.65581696 128.72099304 12.66311646 C127.37654077 12.66082259 126.03208884 12.65831288 124.68763733 12.65560913 C123.27335846 12.65995575 121.85908196 12.66513874 120.44480896 12.6710968 C116.60190605 12.68450234 112.7591014 12.68506384 108.91617966 12.6825335 C105.71023037 12.68146501 102.50430107 12.68634395 99.29835606 12.69113892 C91.7370206 12.70223913 84.17573481 12.7026684 76.61439514 12.69662476 C68.8077863 12.69058116 61.00135751 12.70290452 53.1947794 12.72419482 C46.49662658 12.74179208 39.79853119 12.74781523 33.1003561 12.74455708 C29.0978754 12.74274134 25.09552318 12.7454094 21.09306335 12.75927162 C17.33048252 12.77181524 13.56818318 12.76993908 9.80560684 12.75686073 C8.4232893 12.75448793 7.04095216 12.75725476 5.65865707 12.76548386 C3.77470671 12.77589238 1.89067666 12.76608102 0.00672913 12.75517273 C-1.5761364 12.75542434 -1.5761364 12.75542434 -3.190979 12.75568104 C-5.80064392 12.38095093 -5.80064392 12.38095093 -7.64016724 11.04506207 C-9.44942853 8.45060075 -9.18419099 6.44932751 -8.80064392 3.38095093 C-6.37744022 -0.09176048 -4.06007072 0.0043572 0 0 Z " fill="#FCFBFA" transform="translate(189.80064392089844,300.6190490722656)"/>
<path d="M0 0 C5.61 0 11.22 0 17 0 C17.3125 8.3125 17.3125 8.3125 17.38793945 10.91918945 C17.42105225 11.60198975 17.45416504 12.28479004 17.48828125 12.98828125 C17.51446533 13.68477783 17.54064941 14.38127441 17.56762695 15.09887695 C18.13292579 17.58446815 18.96735878 18.48475837 21 20 C22.91965648 20.49823096 22.91965648 20.49823096 25.01171875 20.51171875 C26.03591919 20.56138794 26.03591919 20.56138794 27.08081055 20.61206055 C28.37112183 20.64940308 28.37112183 20.64940308 29.6875 20.6875 C32.430625 20.790625 35.17375 20.89375 38 21 C38 26.61 38 32.22 38 38 C29.6875 38.3125 29.6875 38.3125 27.08081055 38.38793945 C26.39801025 38.42105225 25.71520996 38.45416504 25.01171875 38.48828125 C23.96697388 38.52755737 23.96697388 38.52755737 22.90112305 38.56762695 C20.41553185 39.13292579 19.51524163 39.96735878 18 42 C17.50176904 43.91965648 17.50176904 43.91965648 17.48828125 46.01171875 C17.43861206 47.03591919 17.43861206 47.03591919 17.38793945 48.08081055 C17.35059692 49.37112183 17.35059692 49.37112183 17.3125 50.6875 C17.209375 53.430625 17.10625 56.17375 17 59 C11.39 59 5.78 59 0 59 C-0.3125 50.6875 -0.3125 50.6875 -0.38793945 48.08081055 C-0.42105225 47.39801025 -0.45416504 46.71520996 -0.48828125 46.01171875 C-0.51446533 45.31522217 -0.54064941 44.61872559 -0.56762695 43.90112305 C-1.13292579 41.41553185 -1.96735878 40.51524163 -4 39 C-5.91965648 38.50176904 -5.91965648 38.50176904 -8.01171875 38.48828125 C-8.69451904 38.45516846 -9.37731934 38.42205566 -10.08081055 38.38793945 C-10.94101807 38.36304443 -11.80122559 38.33814941 -12.6875 38.3125 C-16.8021875 38.1578125 -16.8021875 38.1578125 -21 38 C-21 32.39 -21 26.78 -21 21 C-12.6875 20.6875 -12.6875 20.6875 -10.08081055 20.61206055 C-9.39801025 20.57894775 -8.71520996 20.54583496 -8.01171875 20.51171875 C-7.31522217 20.48553467 -6.61872559 20.45935059 -5.90112305 20.43237305 C-3.41553185 19.86707421 -2.51524163 19.03264122 -1 17 C-0.50176904 15.08034352 -0.50176904 15.08034352 -0.48828125 12.98828125 C-0.45516846 12.30548096 -0.42205566 11.62268066 -0.38793945 10.91918945 C-0.35059692 9.62887817 -0.35059692 9.62887817 -0.3125 8.3125 C-0.209375 5.569375 -0.10625 2.82625 0 0 Z " fill="#E19845" transform="translate(245,179)"/>
<path d="M0 0 C1.22688034 -0.00708481 2.45376068 -0.01416962 3.71781921 -0.02146912 C5.08479346 -0.01917509 6.45176735 -0.01666536 7.81874084 -0.01396179 C9.25257636 -0.01830706 10.68640955 -0.02348958 12.12023926 -0.02944946 C16.02105034 -0.04287102 19.92176472 -0.04341463 23.8225944 -0.04088616 C27.07571464 -0.03981855 30.32881515 -0.04469446 33.58193117 -0.04949158 C41.25495818 -0.06059777 48.92793624 -0.061018 56.60096741 -0.05497742 C64.52400202 -0.04893604 72.44685913 -0.06125018 80.36986345 -0.08254749 C87.16565967 -0.100145 93.96139929 -0.10616776 100.75721747 -0.10290974 C104.81895715 -0.10109372 108.88057023 -0.10376466 112.94228935 -0.11762428 C116.76148905 -0.13016799 120.58041144 -0.12829163 124.3996067 -0.11521339 C125.80288663 -0.11284044 127.20618586 -0.11560793 128.60944366 -0.12383652 C130.52191182 -0.13424405 132.43445846 -0.12443425 134.34692383 -0.11352539 C135.41821502 -0.11369313 136.48950621 -0.11386087 137.59326077 -0.1140337 C140.23695374 0.26069641 140.23695374 0.26069641 142.0816431 1.62783527 C143.73648398 3.96670872 143.65663336 5.46283228 143.23695374 8.26069641 C142.0816431 9.89355755 142.0816431 9.89355755 140.23695374 11.26069641 C137.59326077 11.63542652 137.59326077 11.63542652 134.34692383 11.63491821 C132.50237358 11.64543968 132.50237358 11.64543968 130.62055969 11.65617371 C129.25562887 11.64874584 127.89069966 11.64101469 126.52577209 11.63301086 C125.09016659 11.63543848 123.65456277 11.6391575 122.21896362 11.64407349 C118.31821489 11.65348954 114.41771675 11.64405164 110.51698756 11.63074136 C106.43931326 11.6194389 102.36165152 11.62353338 98.28396606 11.62548828 C91.43679196 11.62637154 84.5897168 11.61528342 77.74256897 11.59687805 C69.81895404 11.57570148 61.89548402 11.57220214 53.97184652 11.57844001 C46.35736671 11.58412824 38.74293808 11.57849496 31.12846565 11.56726646 C27.8840751 11.56261415 24.63971579 11.56174934 21.3953228 11.56385231 C17.57778779 11.56573152 13.76040093 11.55765981 9.9428997 11.54179192 C8.53920606 11.537538 7.13549742 11.53670592 5.73180008 11.53948212 C3.82119323 11.54268846 1.91057769 11.53242575 0 11.52139282 C-1.07091416 11.51933995 -2.14182833 11.51728708 -3.24519444 11.515172 C-5.76304626 11.26069641 -5.76304626 11.26069641 -7.76304626 9.26069641 C-8.01304626 5.76069641 -8.01304626 5.76069641 -7.76304626 2.26069641 C-5.07906091 -0.42328895 -3.75346056 0.00719513 0 0 Z " fill="#FCFCFC" transform="translate(188.76304626464844,332.7393035888672)"/>
</svg>
